<?xml version="1.0" encoding="UTF-8"?>
<svg xmlns="http://www.w3.org/2000/svg" viewBox="240 250 540 470">
  <defs>
    <style>
      .cls-1 {
        fill: #e8611a;
        stroke: #e8611a;
        stroke-miterlimit: 10;
      }
    </style>
  </defs>
  <path class="cls-1" d="M278.5,674.5l14.01-10.49c41.86-35.87,77.81-140.55,99.47-193.53,24.47-59.82,47.52-120.27,71.44-180.31,7.33-3.97,15.89-2.34,18.56,6.33,44.03,108.79,79.29,225.23,128.34,331.66,5.32,11.54,16.74,31.67,25.63,40.37,2.25,2.2,5.69,3.54,7.55,5.95h-16.5c-6.72,0-20.93-7.32-25.97-12.03-16.1-15.04-31.81-78.22-40.05-101.95-16.11-46.36-33.32-92.29-50.99-138.03-2.23,0-3.24,3.41-3.97,5.03-5.38,11.93-10.33,28.47-14.79,41.21-14.57,41.6-27.74,83.95-41.01,125.99-7.63,24.14-13.19,64.65-39.04,75.96-1.66.73-10.15,3.82-11.18,3.82h-20.5c1.28-1.93,4.05-2.8,6.01-4.49,17.67-15.23,29.05-43.84,37.74-65.26,27.22-67.09,48.88-136.5,74.96-204.04,2.85-3.03-.92-16.16-4.2-16.22l-42.28,113.74c-15.41,41.45-29.41,85.19-47.55,125.45-6.3,13.99-23.28,50.81-41.19,50.81h-16.5c25.59-18.33,38.99-50.03,51.2-78.3,32.89-76.2,58.34-155.71,89.41-232.66,1.09-2.59-2.48-13.06-5.09-13.04l-77.74,203.28c-13.16,29.25-23.64,61.41-39.96,89.04-6.62,11.2-21.89,31.69-36.31,31.69h-15.5c4.23-3.7,9.22-6.29,13.53-9.97,21.8-18.66,37.2-55.2,48.65-81.35,36.03-82.31,64.85-167.81,99.14-250.85,1.72-4.86.06-10.67-2.81-14.8-1.57.04-10.86,24.24-12.25,27.73-28.84,72.58-55.91,145.68-86.43,217.57-12.87,30.31-32.32,86.32-60.52,104.48-2.57,1.66-13.43,7.19-15.81,7.19h-17.5Z"/>
  <path class="cls-1" d="M738,674.5c-38.71-4.34-69.24-73.76-83.68-105.32-40.64-88.85-70.48-182.26-109.32-271.68-1.09-2.5-3.27-4.95-4.48-7.5.11-2.26,15.21-2.61,16.97,1.01,32.58,74.18,60.8,150.62,92.83,225.17,21.42,49.86,43.83,103.56,82.7,142.3l21.47,16.03c-5.29-.42-11.32.58-16.5,0Z"/>
  <path class="cls-1" d="M663,674.5c-21.14-2.84-36.65-36.96-44.67-54.33-47.72-103.28-80.36-214.04-124.06-318.94-.95-2.28-6.83-11.68-5.76-12.73,12.51-.79,16.29-.51,21.48,11.01,7.79,17.3,13.81,38.21,20.75,56.25,21.79,56.63,43.26,113.58,66.3,169.7,14.83,36.14,45.46,118.69,73.95,142.05l10.52,6.98c-5.82-.56-12.85.76-18.5,0Z"/>
  <path class="cls-1" d="M700,674.5c-30.7-4.15-54.22-60.98-65.68-86.32-42.38-93.79-73.64-191.95-113.34-286.66-1.48-3.52-5.72-9.11-6.47-11.54-.57-1.85.34-1.33,1.47-1.48,11.74-1.56,14.78.4,19.69,10.33,15.89,32.17,28.48,75.59,42.06,109.94,17,43,34.05,86.24,52.28,128.72,18.84,43.89,38.06,92,71.01,126.99l15.48,10.02c-5.2-.5-11.46.68-16.5,0Z"/>
</svg>
